<svg width="556" height="472" viewBox="0 0 556 472" fill="none" xmlns="http://www.w3.org/2000/svg">
<g filter="url(#filter0_ii_242_118)">
<path d="M80.8857 151.747C104.77 183.382 70.316 230.277 17.7422 230.277C70.7289 240.947 80.8857 318.237 80.8857 318.237C80.8857 318.237 154.599 314.515 154.599 408.305C212.39 346.523 265.1 420.215 265.1 420.215C265.1 420.215 328.931 354.215 414.175 401.73C374.092 307.692 533.186 257.943 533.186 257.943C533.186 257.943 432.98 230.277 466.887 179.412C374.231 179.412 388.779 101.874 388.779 101.874C388.779 101.874 308.89 136.735 265.1 70.9829C228.725 135.619 154.599 89.2199 154.599 89.2199C154.599 89.2199 154.599 176.435 80.8857 151.747Z" fill="#0094FF"/>
</g>
<path d="M80.8857 151.747C104.77 183.382 70.316 230.277 17.7422 230.277C70.7289 240.947 80.8857 318.237 80.8857 318.237C80.8857 318.237 154.599 314.515 154.599 408.305C212.39 346.523 265.1 420.215 265.1 420.215C265.1 420.215 328.931 354.215 414.175 401.73C374.092 307.692 533.186 257.943 533.186 257.943C533.186 257.943 432.98 230.277 466.887 179.412C374.231 179.412 388.779 101.874 388.779 101.874C388.779 101.874 308.89 136.735 265.1 70.9829C228.725 135.619 154.599 89.2199 154.599 89.2199C154.599 89.2199 154.599 176.435 80.8857 151.747Z" stroke="black" stroke-width="3.72266"/>
<path d="M326.355 98.9962L341.763 11.4547L355.069 24.0607L326.355 98.9962Z" fill="black"/>
<path d="M331.839 100.447L389.275 8.59779L399.658 28.4962L331.839 100.447Z" fill="black"/>
<path d="M131.662 355.734L115.321 446.594L102.949 430.669L131.662 355.734Z" fill="black"/>
<path d="M126.179 354.283L74.2343 433.988L45.6536 429.427L126.179 354.283Z" fill="black"/>
<path d="M86.6074 373.759L122.091 352.049L90.1091 356.485L86.6074 373.759Z" fill="black"/>
<path d="M422.766 395.703C415.529 381.074 410.253 344.486 447.044 315.165C435.761 326.837 415.109 359.286 422.766 395.703Z" fill="black"/>
<path d="M158.273 83.5889C166.911 90.3588 225.038 124.909 260.288 68.882C244.881 88.7247 212.666 108.567 158.273 83.5889Z" fill="black"/>
<path d="M124.942 75.0156L124.673 74.7444L124.298 74.819L113.486 76.9723L119.618 69.0221L119.903 68.6536L119.679 68.2458L114.403 58.636L123.06 61.2351L123.487 61.3633L123.789 61.0346L131.201 52.9477L132.774 63.7231L132.839 64.1711L133.273 64.3013L142.845 67.1752L133.267 72.3299L132.902 72.5266L132.894 72.9416L132.695 82.8349L124.942 75.0156Z" fill="#FFA800" stroke="black" stroke-width="1.42174"/>
<path d="M538.225 226.591L537.85 226.663L537.703 227.015L533.453 237.187L530.281 227.661L530.134 227.22L529.671 227.178L518.753 226.19L525.742 220.458L526.087 220.176L525.982 219.742L523.411 209.078L533.229 213.788L533.637 213.984L533.987 213.697L541.716 207.36L540.645 218.184L540.604 218.597L540.944 218.836L549.041 224.523L538.225 226.591Z" fill="#FFA800" stroke="black" stroke-width="1.42174"/>
<path d="M70.8698 100.531L70.4946 100.603L70.3474 100.955L66.0977 111.128L62.9255 101.601L62.7785 101.16L62.3151 101.118L51.397 100.13L58.3864 94.3988L58.7312 94.1161L58.6267 93.6825L56.0554 83.0182L65.8735 87.7288L66.2817 87.9247L66.6318 87.6376L74.3602 81.3003L73.2897 92.1243L73.2488 92.5374L73.5885 92.776L81.6859 98.4636L70.8698 100.531Z" fill="#FFA800" stroke="black" stroke-width="1.42174"/>
<path d="M57.16 149.905L56.7389 149.923L56.5215 150.284L50.2467 160.706L48.3151 149.796L48.2256 149.29L47.7265 149.17L35.9661 146.336L44.5177 141.203L44.9397 140.95L44.8952 140.46L43.8027 128.404L53.7638 135.125L54.1779 135.405L54.6062 135.147L64.0622 129.472L61.1534 141.116L61.0424 141.56L61.3748 141.875L69.3004 149.387L57.16 149.905Z" fill="white" stroke="black" stroke-width="1.56886"/>
<path d="M492.767 203.597L492.346 203.615L492.129 203.976L485.854 214.398L483.923 203.488L483.833 202.983L483.334 202.862L471.573 200.028L480.125 194.895L480.547 194.642L480.503 194.152L479.41 182.096L489.371 188.817L489.785 189.097L490.214 188.84L499.67 183.164L496.761 194.808L496.65 195.253L496.982 195.568L504.908 203.079L492.767 203.597Z" fill="white" stroke="black" stroke-width="1.56886"/>
<path d="M352.403 409.611L352.028 409.683L351.881 410.035L347.631 420.208L344.459 410.681L344.312 410.24L343.848 410.198L332.93 409.21L339.92 403.479L340.264 403.196L340.16 402.762L337.589 392.098L347.407 396.809L347.815 397.004L348.165 396.717L355.893 390.38L354.823 401.204L354.782 401.617L355.122 401.856L363.219 407.543L352.403 409.611Z" fill="#FFA800" stroke="black" stroke-width="1.42174"/>
<path d="M334.194 455.366L333.819 455.438L333.672 455.79L329.422 465.962L326.25 456.436L326.103 455.995L325.639 455.953L314.721 454.965L321.711 449.233L322.055 448.951L321.951 448.517L319.38 437.853L329.198 442.563L329.606 442.759L329.956 442.472L337.684 436.135L336.614 446.959L336.573 447.372L336.913 447.611L345.01 453.298L334.194 455.366Z" fill="#FFA800" stroke="black" stroke-width="1.42174"/>
<path d="M312.082 424.435L311.661 424.453L311.443 424.814L305.169 435.236L303.237 424.326L303.147 423.821L302.648 423.7L290.888 420.866L299.44 415.733L299.862 415.48L299.817 414.99L298.725 402.934L308.686 409.655L309.1 409.935L309.528 409.678L318.984 404.002L316.075 415.646L315.964 416.09L316.297 416.406L324.222 423.917L312.082 424.435Z" fill="white" stroke="black" stroke-width="1.56886"/>
<path d="M387.244 435.207L386.835 435.105L386.524 435.389L377.554 443.607L378.792 432.597L378.849 432.087L378.405 431.83L367.929 425.781L377.584 423.28L378.06 423.157L378.157 422.674L380.524 410.803L388.173 420.07L388.491 420.455L388.975 420.33L399.651 417.565L393.563 427.909L393.331 428.304L393.56 428.7L399.034 438.148L387.244 435.207Z" fill="white" stroke="black" stroke-width="1.56886"/>
<path d="M528.23 299.405L527.809 299.385L527.56 299.725L520.363 309.533L519.432 298.492L519.389 297.981L518.903 297.816L507.449 293.924L516.432 289.59L516.875 289.376L516.875 288.884L516.884 276.779L526.193 284.378L526.58 284.694L527.029 284.477L536.963 279.685L533.006 291.016L532.855 291.449L533.158 291.793L540.367 299.994L528.23 299.405Z" fill="white" stroke="black" stroke-width="1.56886"/>
<path d="M116.004 121.13L115.583 121.11L115.333 121.45L108.136 131.258L107.205 120.217L107.162 119.706L106.676 119.54L95.2222 115.648L104.205 111.314L104.649 111.101L104.649 110.609L104.658 98.5035L113.966 106.103L114.353 106.419L114.803 106.202L124.736 101.409L120.78 112.741L120.629 113.173L120.931 113.518L128.141 121.718L116.004 121.13Z" fill="white" stroke="black" stroke-width="1.56886"/>
<path d="M28.3835 273.746L28.0083 273.818L27.861 274.171L23.6114 284.343L20.4391 274.817L20.2921 274.375L19.8287 274.333L8.91072 273.345L15.9 267.614L16.2449 267.331L16.1404 266.898L13.5691 256.233L23.3872 260.944L23.7954 261.14L24.1454 260.853L31.8738 254.516L30.8033 265.34L30.7625 265.753L31.1022 265.991L39.1996 271.679L28.3835 273.746Z" fill="#FFA800" stroke="black" stroke-width="1.42174"/>
<defs>
<filter id="filter0_ii_242_118" x="17.375" y="67.4247" width="522.402" height="355.69" filterUnits="userSpaceOnUse" color-interpolation-filters="sRGB">
<feFlood flood-opacity="0" result="BackgroundImageFix"/>
<feBlend mode="normal" in="SourceGraphic" in2="BackgroundImageFix" result="shape"/>
<feColorMatrix in="SourceAlpha" type="matrix" values="0 0 0 0 0 0 0 0 0 0 0 0 0 0 0 0 0 0 127 0" result="hardAlpha"/>
<feOffset dx="3.47448" dy="13.8979"/>
<feComposite in2="hardAlpha" operator="arithmetic" k2="-1" k3="1"/>
<feColorMatrix type="matrix" values="0 0 0 0 0 0 0 0 0 0 0 0 0 0 0 0 0 0 0.25 0"/>
<feBlend mode="normal" in2="shape" result="effect1_innerShadow_242_118"/>
<feColorMatrix in="SourceAlpha" type="matrix" values="0 0 0 0 0 0 0 0 0 0 0 0 0 0 0 0 0 0 127 0" result="hardAlpha"/>
<feOffset dx="4.21902" dy="-11.9125"/>
<feComposite in2="hardAlpha" operator="arithmetic" k2="-1" k3="1"/>
<feColorMatrix type="matrix" values="0 0 0 0 0 0 0 0 0 0 0 0 0 0 0 0 0 0 0.25 0"/>
<feBlend mode="normal" in2="effect1_innerShadow_242_118" result="effect2_innerShadow_242_118"/>
</filter>
</defs>
</svg>
